<?xml version="1.0" encoding="utf-8"?>
<!-- Generator: Adobe Illustrator 15.0.2, SVG Export Plug-In . SVG Version: 6.00 Build 0)  -->
<!DOCTYPE svg PUBLIC "-//W3C//DTD SVG 1.1//EN" "http://www.w3.org/Graphics/SVG/1.1/DTD/svg11.dtd">
<svg version="1.1" xmlns="http://www.w3.org/2000/svg" xmlns:xlink="http://www.w3.org/1999/xlink" x="0px" y="0px" width="128px"
	 height="128px" viewBox="0 0 128 128" enable-background="new 0 0 128 128" xml:space="preserve">
<g id="Layer_2">
	<linearGradient id="SVGID_1_" gradientUnits="userSpaceOnUse" x1="64" y1="124" x2="64" y2="4">
		<stop  offset="0" style="stop-color:#012924"/>
		<stop  offset="1" style="stop-color:#0A713A"/>
	</linearGradient>
	<path fill="url(#SVGID_1_)" d="M124,109.6c0,7.953-6.447,14.4-14.4,14.4H18.4C10.447,124,4,117.553,4,109.6V18.4
		C4,10.447,10.447,4,18.4,4h91.2c7.953,0,14.4,6.447,14.4,14.4V109.6z"/>
</g>
<g id="Layer_3">
	<path opacity="0.85" fill="#5DBA48" d="M109.647,56.074c2.426-19.919-11.757-38.036-31.679-40.461
		c-24.901-3.032-47.546,14.696-50.578,39.6c0,0-1.354,9.524-2.98,20.165c0.466,0.003,0.933,0.02,1.396,0.067
		c1.585,0.17,3.144,0.598,4.661,1.39c1.518,0.806,3.008,1.864,4.408,3.75c-1.77,1.546-3.45,2.264-5.103,2.728
		c-1.653,0.451-3.266,0.538-4.851,0.368c-0.588-0.068-1.173-0.183-1.753-0.323c-1.601,10.083-3.207,19.313-3.906,20.601
		c-1.624,2.995,9.179,10.715,13.48,3.822c4.302-6.894,12.725-23.233,25.787-24.86c0,0-13.297-3.277-16.109-19.513
		c-3.119-17.99,10.719-34.6,28.845-36.793c14.5-1.756,27.679,8.575,29.436,23.075c1.403,11.6-6.861,22.143-18.461,23.548
		c-9.281,1.126-17.717-5.486-18.84-14.769c-0.899-7.422,4.391-14.171,11.816-15.071c5.938-0.719,11.337,3.513,12.057,9.454
		c0.573,4.75-2.812,9.069-7.562,9.645c-4.447,0.883-5.827-3.06-5.827-3.06s4.382,2.054,6.629-1.173
		c1.889-2.712,0.111-5.271-2.808-6.819c-2.921-1.548-6.543-0.437-8.093,2.482c-0.677,1.279-0.845,2.693-0.574,4.009
		c0.387,4.23,3.96,7.781,8.4,8.321c6.526,0.797,12.463-3.853,13.258-10.379c0.993-8.161-4.815-15.581-12.975-16.574
		c-10.202-1.243-19.476,6.021-20.718,16.219c-1.55,12.749,7.525,24.341,20.275,25.896C93.214,83.36,107.708,72.013,109.647,56.074z"
		/>
</g>
<g id="Layer_2_copy" display="none">
	<linearGradient id="SVGID_2_" gradientUnits="userSpaceOnUse" x1="64" y1="124" x2="64" y2="4">
		<stop  offset="0" style="stop-color:#FFFFFF;stop-opacity:0"/>
		<stop  offset="0.0327" style="stop-color:#F2F9F0;stop-opacity:0.0261"/>
		<stop  offset="0.1513" style="stop-color:#D3E9CA;stop-opacity:0.1207"/>
		<stop  offset="0.2729" style="stop-color:#B9DDAB;stop-opacity:0.2177"/>
		<stop  offset="0.3958" style="stop-color:#A3D393;stop-opacity:0.3157"/>
		<stop  offset="0.5202" style="stop-color:#93CC81;stop-opacity:0.4149"/>
		<stop  offset="0.6467" style="stop-color:#86C774;stop-opacity:0.5158"/>
		<stop  offset="0.7766" style="stop-color:#7FC56B;stop-opacity:0.6194"/>
		<stop  offset="0.9152" style="stop-color:#7DC468;stop-opacity:0.73"/>
		<stop  offset="0.9341" style="stop-color:#7FC56A;stop-opacity:0.6229"/>
		<stop  offset="0.9465" style="stop-color:#84C771;stop-opacity:0.5527"/>
		<stop  offset="0.9571" style="stop-color:#8ECA7C;stop-opacity:0.4929"/>
		<stop  offset="0.9666" style="stop-color:#9BCF8A;stop-opacity:0.4391"/>
		<stop  offset="0.9754" style="stop-color:#ADD79D;stop-opacity:0.3893"/>
		<stop  offset="0.9837" style="stop-color:#C2E1B5;stop-opacity:0.3423"/>
		<stop  offset="0.9916" style="stop-color:#DBEDD3;stop-opacity:0.2977"/>
		<stop  offset="0.999" style="stop-color:#F8FBF6;stop-opacity:0.2559"/>
		<stop  offset="1" style="stop-color:#FFFFFF;stop-opacity:0.25"/>
	</linearGradient>
	<path display="inline" fill="url(#SVGID_2_)" d="M124,109.6c0,7.953-6.447,14.4-14.4,14.4H18.4C10.447,124,4,117.553,4,109.6V18.4
		C4,10.447,10.447,4,18.4,4h91.2c7.953,0,14.4,6.447,14.4,14.4V109.6z"/>
</g>
</svg>
