<?xml version="1.0" encoding="utf-8"?>
<!-- Generator: Adobe Illustrator 15.0.2, SVG Export Plug-In . SVG Version: 6.00 Build 0)  -->
<!DOCTYPE svg PUBLIC "-//W3C//DTD SVG 1.1//EN" "http://www.w3.org/Graphics/SVG/1.1/DTD/svg11.dtd">
<svg version="1.1" id="Layer_1" xmlns="http://www.w3.org/2000/svg" xmlns:xlink="http://www.w3.org/1999/xlink" x="0px" y="0px"
	 width="235px" height="55px" viewBox="1.125 -1.125 235 55" enable-background="new 1.125 -1.125 235 55" xml:space="preserve">
<g enable-background="new    ">
	<path fill="#5CBA47" d="M62.417,22.098l5.868,3.06v10.64c-1.418,0.137-2.7,0.48-3.848,1.036c-1.148,0.557-2.447,1.5-3.898,2.83
		c-1.248-0.741-2.332-1.255-3.251-1.541s-1.893-0.43-2.921-0.43c-1.585,0-2.994,0.48-4.224,1.44c-0.456,0.354-0.785,0.53-0.987,0.53
		c-0.186,0-0.371-0.092-0.556-0.277c-0.186-0.186-0.278-0.371-0.278-0.558c0-0.2,0.177-0.471,0.53-0.809
		c0.202-0.201,0.547-0.59,1.034-1.162l2.299-2.857l3.255-4.324l-5.527-2.978v-9.425c1.738-0.539,3.101-1.141,4.089-1.807
		c0.987-0.666,1.937-1.58,2.848-2.742c2.157,0.911,3.893,1.55,5.207,1.921c0.944,0.253,1.844,0.379,2.705,0.379
		c0.947,0,1.683-0.207,2.207-0.619c0.524-0.412,0.788-0.847,0.788-1.301c0-0.304-0.168-0.607-0.505-0.91
		c-0.657-0.589-0.986-1.162-0.986-1.718c0-0.523,0.142-0.94,0.43-1.251c0.286-0.313,0.606-0.467,0.96-0.467
		c0.471,0,0.897,0.215,1.276,0.644c0.379,0.429,0.569,0.999,0.569,1.706c0,0.724-0.152,1.432-0.458,2.123
		c-0.305,0.691-0.888,1.584-1.75,2.679L62.417,22.098z M59.365,26.145l-6.091,8.161c0.741-0.253,1.432-0.437,2.072-0.555
		c0.64-0.118,1.221-0.177,1.744-0.177c1.938,0,3.951,0.64,6.041,1.921v-7.329L59.365,26.145z M55.017,23.844l3.46,1.793l5.51-7.331
		c-1.128,0.322-2.106,0.483-2.931,0.483c-2.072,0-4.086-0.69-6.04-2.072V23.844z"/>
	<path fill="#5CBA47" d="M72,15.482l7.051-8.697h0.733l-0.253,6.975h5.079v2.831h-5.079v17.033l2.831,2.098l1.618-1.266l0.632,0.76
		l-5.572,4.447c-1.894-1.937-4.037-3.251-6.432-3.941v-0.506c0.674-0.456,1.121-0.927,1.339-1.418
		c0.286-0.624,0.43-1.526,0.43-2.707v-14.5h-2.375L72,15.482L72,15.482z"/>
	<path fill="#5CBA47" d="M105.256,13.812l0.91,0.354c-0.91,1.416-1.487,2.498-1.731,3.248c-0.244,0.75-0.366,1.765-0.366,3.045
		v10.766c0,1.786,0.126,2.902,0.379,3.348c0.253,0.446,0.555,0.67,0.909,0.67c0.185,0,0.375-0.048,0.575-0.145
		c0.123-0.08,0.483-0.37,1.081-0.866l0.619,0.783l-5.371,4.649c-1.302-1.011-2.173-1.916-2.613-2.715
		c-0.44-0.8-0.685-1.916-0.735-3.348l-7.67,6.065c-2.89-2.363-4.333-4.689-4.333-6.986c0-1.534,0.313-2.976,0.938-4.328
		c0.829-1.771,2.257-3.838,4.288-6.2l-3.041-6.496l0.353-0.654c0.656,0.05,1.143,0.075,1.462,0.075c1.983,0,3.731-0.783,5.244-2.351
		c1.227,0.717,2.568,1.292,4.022,1.726c1.454,0.434,2.567,0.65,3.341,0.65c0.353,0,0.621-0.063,0.806-0.187
		C104.509,14.791,104.819,14.423,105.256,13.812z M98.913,18.615l-8.642-2.654l3.076,6.511l5.566,2.614V18.615z M98.913,26.145
		l-6.115-2.872c-0.944,2.059-1.416,3.865-1.416,5.416c0,2.733,1.239,4.985,3.717,6.757l3.814-3.081V26.145z"/>
	<path fill="#5CBA47" d="M109.729,15.482l7.051-8.697h0.733l-0.253,6.975h5.08v2.831h-5.08v17.033l2.831,2.098l1.617-1.266
		l0.633,0.76l-5.572,4.447c-1.894-1.937-4.037-3.251-6.432-3.941v-0.506c0.674-0.456,1.121-0.927,1.339-1.418
		c0.286-0.624,0.43-1.526,0.43-2.707v-14.5h-2.375L109.729,15.482L109.729,15.482z"/>
	<path fill="#5CBA47" d="M138.079,22.098l5.867,3.06v10.64c-1.417,0.137-2.7,0.48-3.848,1.036c-1.147,0.557-2.447,1.5-3.897,2.83
		c-1.248-0.741-2.332-1.255-3.251-1.541s-1.893-0.43-2.921-0.43c-1.585,0-2.993,0.48-4.225,1.44c-0.456,0.354-0.785,0.53-0.987,0.53
		c-0.186,0-0.372-0.092-0.557-0.277s-0.279-0.371-0.279-0.558c0-0.2,0.177-0.471,0.531-0.809c0.201-0.201,0.546-0.59,1.034-1.162
		l2.299-2.857l3.254-4.324l-5.526-2.978v-9.425c1.738-0.539,3.101-1.141,4.088-1.807c0.987-0.666,1.937-1.58,2.849-2.742
		c2.156,0.911,3.892,1.55,5.206,1.921c0.943,0.253,1.845,0.379,2.704,0.379c0.947,0,1.684-0.207,2.208-0.619
		c0.523-0.412,0.787-0.847,0.787-1.301c0-0.304-0.169-0.607-0.506-0.91c-0.657-0.589-0.985-1.162-0.985-1.718
		c0-0.523,0.144-0.94,0.429-1.251c0.287-0.312,0.607-0.467,0.961-0.467c0.472,0,0.896,0.215,1.276,0.644
		c0.379,0.429,0.568,0.999,0.568,1.706c0,0.724-0.153,1.432-0.458,2.123c-0.304,0.691-0.887,1.584-1.75,2.679L138.079,22.098z
		 M135.027,26.145l-6.092,8.161c0.742-0.253,1.432-0.437,2.072-0.555c0.64-0.118,1.222-0.177,1.744-0.177
		c1.938,0,3.951,0.64,6.04,1.921v-7.329L135.027,26.145z M130.679,23.844l3.461,1.793l5.509-7.331
		c-1.128,0.322-2.106,0.483-2.931,0.483c-2.073,0-4.086-0.69-6.039-2.072V23.844z"/>
</g>
<g>
	<path d="M158.401,3.451l0.253,0.606c-1.206,0.775-2.03,1.601-2.472,2.477c-0.441,0.875-0.662,2.266-0.662,4.17v8.238l7.822-6.217
		c1.663,1.08,2.745,2.12,3.249,3.124c0.504,1.003,0.757,2.711,0.757,5.121v11.458c0,2.191-0.228,3.792-0.683,4.804
		c-0.725,1.652-2.063,3.204-4.018,4.654c-2.562,1.921-5.821,3.582-9.78,4.981l-0.354-0.96c3.218-1.332,5.458-2.546,6.722-3.64
		c1.265-1.096,2.09-2.258,2.477-3.487c0.287-0.927,0.431-3.338,0.431-7.229v-10.59c0-1.18-0.118-1.997-0.354-2.452
		c-0.354-0.623-1.004-1.238-1.948-1.845l-4.319,3.498v14.069l1.795,1.807l-4.436,3.626l-4.51-3.626l1.996-1.984V11.077
		c0-2.087-0.185-3.519-0.552-4.293c-0.367-0.774-1.093-1.473-2.179-2.096l0.279-0.632c0.889,0.253,1.604,0.535,2.141,0.847
		c0.538,0.312,1.243,0.854,2.117,1.63c1.03-0.977,2.017-1.693,2.962-2.148C156.08,3.931,157.169,3.619,158.401,3.451z"/>
	<path d="M182.535,12.725l7.127,8.313l-11.322,7.935v4.599l5.862,2.325l3.969-2.704l0.556,0.758l-8.175,5.711
		c-1.671-0.893-3.047-1.533-4.125-1.921c-1.081-0.387-2.616-0.791-4.606-1.213v-0.633c0.572-0.337,0.956-0.754,1.149-1.25
		c0.194-0.497,0.291-1.573,0.291-3.222V16.971c1.584-0.573,2.897-1.094,3.942-1.567C177.961,15.05,179.738,14.157,182.535,12.725z
		 M178.694,15.631l-0.354,0.177v11.475l6.658-4.666L178.694,15.631z"/>
	<path d="M210.081,13.812l0.909,0.354c-0.909,1.416-1.486,2.498-1.73,3.248c-0.244,0.75-0.367,1.765-0.367,3.045v10.766
		c0,1.786,0.127,2.902,0.381,3.348c0.253,0.446,0.555,0.67,0.908,0.67c0.184,0,0.375-0.048,0.575-0.145
		c0.122-0.08,0.482-0.37,1.081-0.866l0.618,0.783l-5.37,4.649c-1.302-1.011-2.173-1.916-2.612-2.715
		c-0.439-0.8-0.686-1.916-0.736-3.348l-7.669,6.065c-2.89-2.363-4.334-4.689-4.334-6.986c0-1.534,0.313-2.976,0.938-4.328
		c0.829-1.771,2.258-3.838,4.287-6.2l-3.04-6.496l0.354-0.654c0.656,0.05,1.143,0.075,1.462,0.075c1.983,0,3.73-0.783,5.245-2.351
		c1.227,0.717,2.566,1.292,4.021,1.726c1.454,0.434,2.568,0.65,3.341,0.65c0.353,0,0.622-0.063,0.807-0.187
		C209.332,14.791,209.643,14.423,210.081,13.812z M203.737,18.615l-8.642-2.654l3.075,6.512l5.566,2.614V18.615z M203.737,26.145
		l-6.115-2.872c-0.943,2.059-1.415,3.865-1.415,5.416c0,2.733,1.239,4.985,3.716,6.757l3.814-3.081V26.145L203.737,26.145z"/>
	<path d="M214.781,4.108l17.185,11.801c0.27-0.623,0.568-1.095,0.896-1.415c0.329-0.321,0.83-0.624,1.504-0.911v1.036
		c-0.337,0.455-0.556,0.868-0.657,1.238c-0.101,0.372-0.151,1.129-0.151,2.274V35.14c-2.136,0.809-3.727,1.514-4.769,2.111
		c-1.043,0.599-2.171,1.401-3.382,2.412c-1.99-1.297-3.754-2.24-5.288-2.83c-1.535-0.59-3.188-0.994-4.958-1.213v-0.48
		c0.606-0.522,0.998-1.049,1.175-1.58s0.266-1.63,0.266-3.298V17.021c2.308-0.642,3.939-1.363,4.897-2.168l-6.718-4.584V4.108
		L214.781,4.108z M228.402,19.564l-5.22-3.561c-0.461,0.37-0.937,0.697-1.427,0.983v15.627l6.646,2.956V19.564z"/>
</g>
<g id="Layer_3">
	<path fill="#5CBA47" enable-background="new    " d="M45.594,23.039c1.119-9.189-5.423-17.548-14.614-18.667
		c-11.486-1.399-21.932,6.78-23.333,18.27c0,0-0.623,4.393-1.375,9.301c0.215,0.004,0.432,0.012,0.645,0.033
		c0.732,0.077,1.451,0.274,2.152,0.64c0.699,0.372,1.387,0.86,2.032,1.731c-0.815,0.71-1.592,1.044-2.355,1.257
		c-0.763,0.208-1.505,0.249-2.237,0.17c-0.271-0.031-0.541-0.084-0.809-0.15c-0.739,4.653-1.481,8.911-1.803,9.505
		c-0.749,1.381,4.235,4.943,6.221,1.764c1.985-3.182,5.868-10.719,11.896-11.468c0,0-6.134-1.513-7.432-9.003
		c-1.44-8.298,4.945-15.962,13.306-16.973c6.69-0.811,12.77,3.956,13.58,10.644c0.646,5.352-3.166,10.214-8.517,10.864
		c-4.281,0.52-8.174-2.531-8.69-6.813c-0.417-3.424,2.024-6.537,5.449-6.953c2.741-0.332,5.229,1.621,5.563,4.362
		c0.264,2.19-1.298,4.183-3.488,4.448c-2.053,0.408-2.688-1.411-2.688-1.411s2.021,0.948,3.059-0.542
		c0.872-1.251,0.051-2.431-1.296-3.145c-1.347-0.714-3.021-0.202-3.735,1.144c-0.313,0.59-0.391,1.243-0.264,1.85
		c0.177,1.952,1.826,3.589,3.875,3.838c3.009,0.368,5.749-1.777,6.117-4.788c0.458-3.764-2.222-7.188-5.987-7.646
		c-4.705-0.573-8.984,2.777-9.557,7.481c-0.715,5.882,3.471,11.23,9.354,11.948C38.014,35.625,44.699,30.39,45.594,23.039z"/>
</g>
</svg>
